<?xml version="1.0" encoding="utf-8"?>
<svg xmlns="http://www.w3.org/2000/svg" style="margin: auto; background: none; display: block; shape-rendering: auto;" width="280" height="250" preserveAspectRatio="xMidYMid">
<style type="text/css">
  text {
    text-anchor: middle; font-size: 38px; opacity: 0;
  }
</style>
<g style="transform-origin: 140px 125px; transform: scale(0.475);">
<g transform="translate(140,125)">
  <g transform="translate(0,0)"><g class="path" style="transform: matrix(1, 0, 0, 1, 0, 0); transform-origin: -161.48px -4.1794px; animation: 1s linear -0.5775s infinite normal forwards running bounce-b6c300b5-ce66-48f8-aa42-7eb19cb9e1ee;"><path d="M36.08-53.52L34.96-47.04L34.96-47.04Q33.04-47.52 30.96-47.92L30.96-47.92L30.96-47.92Q29.12-48.32 26.76-48.60L26.76-48.60L26.76-48.60Q24.40-48.88 21.84-48.88L21.84-48.88L21.84-48.88Q15.92-48.88 13.36-47.08L13.36-47.08L13.36-47.08Q10.80-45.28 10.80-41.52L10.80-41.52L10.80-41.52Q10.88-38.56 12.96-36.52L12.96-36.52L12.96-36.52Q15.04-34.48 18.16-32.76L18.16-32.76L18.16-32.76Q21.28-31.04 25-29.40L25-29.40L25-29.40Q28.72-27.76 31.84-25.64L31.84-25.64L31.84-25.64Q34.96-23.52 37.08-20.68L37.08-20.68L37.08-20.68Q39.20-17.84 39.20-13.76L39.20-13.76L39.20-13.76Q39.20-9.04 37.16-6.16L37.16-6.16L37.16-6.16Q35.12-3.28 32-1.68L32-1.68L32-1.68Q28.88-0.08 25.16 0.48L25.16 0.48L25.16 0.48Q21.44 1.04 18.08 1.04L18.08 1.04L18.08 1.04Q14.88 1.04 12.24 0.64L12.24 0.64L12.24 0.64Q9.60 0.24 7.68-0.24L7.68-0.24L7.68-0.24Q5.44-0.80 3.60-1.52L3.60-1.52L5.20-8L5.20-8Q7.04-7.20 9.12-6.64L9.12-6.64L9.12-6.64Q10.96-6.16 13.24-5.76L13.24-5.76L13.24-5.76Q15.52-5.36 18.08-5.36L18.08-5.36L18.08-5.36Q21.20-5.36 23.80-5.76L23.80-5.76L23.80-5.76Q26.40-6.16 28.32-7.04L28.32-7.04L28.32-7.04Q30.24-7.92 31.32-9.36L31.32-9.36L31.32-9.36Q32.40-10.80 32.40-12.88L32.40-12.88L32.40-12.88Q32.32-16 30.36-17.96L30.36-17.96L30.36-17.96Q28.40-19.92 25.16-21.72L25.16-21.72L25.16-21.72Q21.92-23.52 18.20-25.20L18.20-25.20L18.20-25.20Q14.48-26.88 11.36-29.04L11.36-29.04L11.36-29.04Q8.24-31.20 6.12-34.16L6.12-34.16L6.12-34.16Q4-37.12 4-41.52L4-41.52L4-41.52Q4-44.08 4.88-46.56L4.88-46.56L4.88-46.56Q5.76-49.04 7.88-50.96L7.88-50.96L7.88-50.96Q10-52.88 13.40-54.08L13.40-54.08L13.40-54.08Q16.80-55.28 21.84-55.28L21.84-55.28L21.84-55.28Q24.72-55.28 27.32-55L27.32-55L27.32-55Q29.92-54.72 31.84-54.40L31.84-54.40L31.84-54.40Q34.08-54 36.08-53.52L36.08-53.52" fill="#ffffff" stroke="none" stroke-width="none" transform="translate(-182.8800048828125,22.94059959411621)" style="fill: rgb(255, 255, 255);"></path></g><g class="path" style="transform: matrix(1, 0, 0, 1, 0, 0); transform-origin: -111.56px 2.8206px; animation: 1s linear -0.495s infinite normal forwards running bounce-b6c300b5-ce66-48f8-aa42-7eb19cb9e1ee;"><path d="M53.44 0L42.56-40.24L49.28-40.24L54-22.08L54-22.08Q54.64-19.76 55.16-17.16L55.16-17.16L55.16-17.16Q55.68-14.56 56.16-12.32L56.16-12.32L56.16-12.32Q56.64-9.68 57.20-7.12L57.20-7.12L57.28-7.12L57.28-7.12Q57.84-9.68 58.56-12.32L58.56-12.32L58.56-12.32Q59.20-14.56 59.92-17.16L59.92-17.16L59.92-17.16Q60.64-19.76 61.36-22.08L61.36-22.08L67.04-40.24L75.60-40.24L80.16-22.08L80.16-22.08Q80.72-19.76 81.32-17.16L81.32-17.16L81.32-17.16Q81.92-14.56 82.32-12.32L82.32-12.32L82.32-12.32Q82.80-9.68 83.28-7.12L83.28-7.12L83.36-7.12L83.36-7.12Q84.08-9.76 84.88-12.40L84.88-12.40L84.88-12.40Q85.52-14.64 86.32-17.24L86.32-17.24L86.32-17.24Q87.12-19.84 87.84-22.08L87.84-22.08L93.44-40.24L100.08-40.24L86.88 0L79.76 0L74-22.08L74-22.08Q73.20-25.12 72.68-27.56L72.68-27.56L72.68-27.56Q72.16-30 71.76-31.68L71.76-31.68L71.76-31.68Q71.36-33.68 71.04-35.20L71.04-35.20L70.88-35.20L70.88-35.20Q70.56-33.68 70.08-31.68L70.08-31.68L70.08-31.68Q69.68-30 68.96-27.56L68.96-27.56L68.96-27.56Q68.24-25.12 67.36-22.08L67.36-22.08L60.56 0L53.44 0" fill="#ffffff" stroke="none" stroke-width="none" transform="translate(-182.8800048828125,22.94059959411621)" style="fill: rgb(255, 255, 255);"></path></g><g class="path" style="transform: matrix(1, 0, 0, 1, 0, 0); transform-origin: -63.44px 2.9406px; animation: 1s linear -0.4125s infinite normal forwards running bounce-b6c300b5-ce66-48f8-aa42-7eb19cb9e1ee;"><path d="M128.88-9.36L128.88-18.48L128.88-18.48Q127.28-18.40 125.84-18.32L125.84-18.32L125.84-18.32Q124.40-18.24 123-18.12L123-18.12L123-18.12Q121.60-18 120.48-17.84L120.48-17.84L120.48-17.84Q114.72-17.12 112.32-15.32L112.32-15.32L112.32-15.32Q109.92-13.52 109.92-10.16L109.92-10.16L109.92-10.16Q109.92-7.36 111.64-5.96L111.64-5.96L111.64-5.96Q113.36-4.56 116.16-4.56L116.16-4.56L116.16-4.56Q120-4.56 123-5.88L123-5.88L123-5.88Q126-7.20 128.88-9.36L128.88-9.36zM129.60 0.64L128.80-3.76L128.80-3.76Q125.04-1.60 121.80-0.28L121.80-0.28L121.80-0.28Q118.56 1.04 114.80 1.04L114.80 1.04L114.80 1.04Q109.44 1.04 106.28-1.56L106.28-1.56L106.28-1.56Q103.12-4.16 103.12-10.16L103.12-10.16L103.12-10.16Q103.12-13.28 104.72-15.60L104.72-15.60L104.72-15.60Q106.32-17.92 108.92-19.48L108.92-19.48L108.92-19.48Q111.52-21.04 114.80-21.92L114.80-21.92L114.80-21.92Q118.08-22.80 121.52-23.04L121.52-23.04L121.52-23.04Q122.96-23.20 125.28-23.32L125.28-23.32L125.28-23.32Q127.60-23.44 128.88-23.52L128.88-23.52L128.88-23.52Q128.88-26.32 128.72-28.52L128.72-28.52L128.72-28.52Q128.56-30.72 127.76-32.28L127.76-32.28L127.76-32.28Q126.96-33.84 125.40-34.64L125.40-34.64L125.40-34.64Q123.84-35.44 120.96-35.44L120.96-35.44L120.96-35.44Q118.64-35.44 116.48-35.16L116.48-35.16L116.48-35.16Q114.32-34.88 112.64-34.56L112.64-34.56L112.64-34.56Q110.64-34.16 108.96-33.68L108.96-33.68L107.68-39.20L107.68-39.20Q109.68-39.68 112-40.08L112-40.08L112-40.08Q114-40.48 116.64-40.76L116.64-40.76L116.64-40.76Q119.28-41.04 122.32-41.04L122.32-41.04L122.32-41.04Q126.40-41.04 128.92-39.84L128.92-39.84L128.92-39.84Q131.44-38.64 132.84-36.60L132.84-36.60L132.84-36.60Q134.24-34.56 134.76-31.96L134.76-31.96L134.76-31.96Q135.28-29.36 135.28-26.48L135.28-26.48L135.28-7.28L135.28-7.28Q135.28-6.16 135.32-4.92L135.32-4.92L135.32-4.92Q135.36-3.68 135.48-2.48L135.48-2.48L135.48-2.48Q135.60-1.28 135.76 0L135.76 0L129.60 0.64" fill="#ffffff" stroke="none" stroke-width="none" transform="translate(-182.8800048828125,22.94059959411621)" style="fill: rgb(255, 255, 255);"></path></g><g class="path" style="transform: matrix(1, 0, 0, 1, 0, 0); transform-origin: -19.56px 11.5406px; animation: 1s linear -0.33s infinite normal forwards running bounce-b6c300b5-ce66-48f8-aa42-7eb19cb9e1ee;"><path d="M146.64 18.24L146.64-30.96L146.64-30.96Q146.64-33.84 146.24-39.52L146.24-39.52L152.16-40.32L152.88-36L152.88-36Q154.48-37.36 156.20-38.44L156.20-38.44L156.20-38.44Q157.92-39.52 159.96-40.28L159.96-40.28L159.96-40.28Q162-41.04 164.32-41.04L164.32-41.04L164.32-41.04Q167.60-41.04 170.52-39.92L170.52-39.92L170.52-39.92Q173.44-38.80 175.64-36.32L175.64-36.32L175.64-36.32Q177.84-33.84 179.12-29.88L179.12-29.88L179.12-29.88Q180.40-25.92 180.40-20.16L180.40-20.16L180.40-20.16Q180.40-14.32 178.68-10.28L178.68-10.28L178.68-10.28Q176.96-6.24 174.20-3.72L174.20-3.72L174.20-3.72Q171.44-1.20 167.96-0.08L167.96-0.08L167.96-0.08Q164.48 1.04 160.88 1.04L160.88 1.04L160.88 1.04Q157.04 0.96 153.04 0.08L153.04 0.08L153.04 17.44L146.64 18.24zM160.88-4.56L160.88-4.56L160.88-4.56Q164.24-4.56 166.64-5.76L166.64-5.76L166.64-5.76Q169.04-6.96 170.60-9.08L170.60-9.08L170.60-9.08Q172.16-11.20 172.88-13.96L172.88-13.96L172.88-13.96Q173.60-16.72 173.60-19.84L173.60-19.84L173.60-19.84Q173.60-22.64 173.08-25.44L173.08-25.44L173.08-25.44Q172.56-28.24 171.40-30.44L171.40-30.44L171.40-30.44Q170.24-32.64 168.32-34.04L168.32-34.04L168.32-34.04Q166.40-35.44 163.60-35.44L163.60-35.44L163.60-35.44Q161.52-35.44 159.68-34.68L159.68-34.68L159.68-34.68Q157.84-33.92 156.20-32.84L156.20-32.84L156.20-32.84Q154.56-31.76 153.04-30.40L153.04-30.40L153.04-5.84L153.04-5.84Q153.92-5.52 155-5.24L155-5.24L155-5.24Q156.08-4.96 157.56-4.76L157.56-4.76L157.56-4.76Q159.04-4.56 160.88-4.56" fill="#ffffff" stroke="none" stroke-width="none" transform="translate(-182.8800048828125,22.94059959411621)" style="fill: rgb(255, 255, 255);"></path></g><g class="path" style="transform: matrix(1, 0, 0, 1, 0, 0); transform-origin: 24.96px -4.3394px; animation: 1s linear -0.2475s infinite normal forwards running bounce-b6c300b5-ce66-48f8-aa42-7eb19cb9e1ee;"><path d="M184.96 0L203.68-54.56L212-54.56L230.72 0L223.76 0L218.96-14.56L196.80-14.56L191.92 0L184.96 0zM198.88-20.96L216.80-20.96L208-48.16L207.76-48.16L198.88-20.96" fill="#ffffff" stroke="none" stroke-width="none" transform="translate(-182.8800048828125,22.94059959411621)" style="fill: rgb(255, 255, 255);"></path></g><g class="path" style="transform: matrix(1, 0, 0, 1, 0, 0); transform-origin: 78.28px 2.8206px; animation: 1s linear -0.165s infinite normal forwards running bounce-b6c300b5-ce66-48f8-aa42-7eb19cb9e1ee;"><path d="M243.28 0L232.40-40.24L239.12-40.24L243.84-22.08L243.84-22.08Q244.48-19.76 245-17.16L245-17.16L245-17.16Q245.52-14.56 246-12.32L246-12.32L246-12.32Q246.48-9.68 247.04-7.12L247.04-7.12L247.12-7.12L247.12-7.12Q247.68-9.68 248.40-12.32L248.40-12.32L248.40-12.32Q249.04-14.56 249.76-17.16L249.76-17.16L249.76-17.16Q250.48-19.76 251.20-22.08L251.20-22.08L256.88-40.24L265.44-40.24L270-22.08L270-22.08Q270.56-19.76 271.16-17.16L271.16-17.16L271.16-17.16Q271.76-14.56 272.16-12.32L272.16-12.32L272.16-12.32Q272.64-9.68 273.12-7.12L273.12-7.12L273.20-7.12L273.20-7.12Q273.92-9.76 274.72-12.40L274.72-12.40L274.72-12.40Q275.36-14.64 276.16-17.24L276.16-17.24L276.16-17.24Q276.96-19.84 277.68-22.08L277.68-22.08L283.28-40.24L289.92-40.24L276.72 0L269.60 0L263.84-22.08L263.84-22.08Q263.04-25.12 262.52-27.56L262.52-27.56L262.52-27.56Q262-30 261.60-31.68L261.60-31.68L261.60-31.68Q261.20-33.68 260.88-35.20L260.88-35.20L260.72-35.20L260.72-35.20Q260.40-33.68 259.92-31.68L259.92-31.68L259.92-31.68Q259.52-30 258.80-27.56L258.80-27.56L258.80-27.56Q258.08-25.12 257.20-22.08L257.20-22.08L250.40 0L243.28 0" fill="#ffffff" stroke="none" stroke-width="none" transform="translate(-182.8800048828125,22.94059959411621)" style="fill: rgb(255, 255, 255);"></path></g><g class="path" style="transform: matrix(1, 0, 0, 1, 0, 0); transform-origin: 126.4px 2.9406px; animation: 1s linear -0.0825s infinite normal forwards running bounce-b6c300b5-ce66-48f8-aa42-7eb19cb9e1ee;"><path d="M318.72-9.36L318.72-18.48L318.72-18.48Q317.12-18.40 315.68-18.32L315.68-18.32L315.68-18.32Q314.24-18.24 312.84-18.12L312.84-18.12L312.84-18.12Q311.44-18 310.32-17.84L310.32-17.84L310.32-17.84Q304.56-17.12 302.16-15.32L302.16-15.32L302.16-15.32Q299.76-13.52 299.76-10.16L299.76-10.16L299.76-10.16Q299.76-7.36 301.48-5.96L301.48-5.96L301.48-5.96Q303.20-4.56 306.00-4.56L306.00-4.56L306.00-4.56Q309.84-4.56 312.84-5.88L312.84-5.88L312.84-5.88Q315.84-7.20 318.72-9.36L318.72-9.36zM319.44 0.64L318.64-3.76L318.64-3.76Q314.88-1.60 311.64-0.28L311.64-0.28L311.64-0.28Q308.40 1.04 304.64 1.04L304.64 1.04L304.64 1.04Q299.28 1.04 296.12-1.56L296.12-1.56L296.12-1.56Q292.96-4.16 292.96-10.16L292.96-10.16L292.96-10.16Q292.96-13.28 294.56-15.60L294.56-15.60L294.56-15.60Q296.16-17.92 298.76-19.48L298.76-19.48L298.76-19.48Q301.36-21.04 304.64-21.92L304.64-21.92L304.64-21.92Q307.92-22.80 311.36-23.04L311.36-23.04L311.36-23.04Q312.80-23.20 315.12-23.32L315.12-23.32L315.12-23.32Q317.44-23.44 318.72-23.52L318.72-23.52L318.72-23.52Q318.72-26.32 318.56-28.52L318.56-28.52L318.56-28.52Q318.40-30.72 317.60-32.28L317.60-32.28L317.60-32.28Q316.80-33.84 315.24-34.64L315.24-34.64L315.24-34.64Q313.68-35.44 310.80-35.44L310.80-35.44L310.80-35.44Q308.48-35.44 306.32-35.16L306.32-35.16L306.32-35.16Q304.16-34.88 302.48-34.56L302.48-34.56L302.48-34.56Q300.48-34.16 298.80-33.68L298.80-33.68L297.52-39.20L297.52-39.20Q299.52-39.68 301.84-40.08L301.84-40.08L301.84-40.08Q303.84-40.48 306.48-40.76L306.48-40.76L306.48-40.76Q309.12-41.04 312.16-41.04L312.16-41.04L312.16-41.04Q316.24-41.04 318.76-39.84L318.76-39.84L318.76-39.84Q321.28-38.64 322.68-36.60L322.68-36.60L322.68-36.60Q324.08-34.56 324.60-31.96L324.60-31.96L324.60-31.96Q325.12-29.36 325.12-26.48L325.12-26.48L325.12-7.28L325.12-7.28Q325.12-6.16 325.16-4.92L325.16-4.92L325.16-4.92Q325.20-3.68 325.32-2.48L325.32-2.48L325.32-2.48Q325.44-1.28 325.60 0L325.60 0L319.44 0.64" fill="#ffffff" stroke="none" stroke-width="none" transform="translate(-182.8800048828125,22.94059959411621)" style="fill: rgb(255, 255, 255);"></path></g><g class="path" style="transform: matrix(1, 0, 0, 1, 0, 0); transform-origin: 167.2px 12.5006px; animation: 1s linear 0s infinite normal forwards running bounce-b6c300b5-ce66-48f8-aa42-7eb19cb9e1ee;"><path d="M346.88-1.04L330.80-40.24L337.60-40.24L345.12-22.08L345.12-22.08Q346.24-19.44 347.16-16.80L347.16-16.80L347.16-16.80Q348.08-14.16 348.80-12.08L348.80-12.08L348.80-12.08Q349.68-9.60 350.32-7.28L350.32-7.28L350.40-7.28L350.40-7.28Q351.12-9.60 352.00-12.08L352.00-12.08L352.00-12.08Q352.72-14.16 353.68-16.80L353.68-16.80L353.68-16.80Q354.64-19.44 355.68-22.08L355.68-22.08L362.64-40.24L369.36-40.24L350.32 7.76L350.32 7.76Q349.20 10.72 347.40 12.88L347.40 12.88L347.40 12.88Q345.60 15.04 343.92 16.48L343.92 16.48L343.92 16.48Q341.92 18.16 339.76 19.36L339.76 19.36L336.64 13.84L336.64 13.84Q338.32 13.04 339.76 11.84L339.76 11.84L339.76 11.84Q341.04 10.80 342.32 9.24L342.32 9.24L342.32 9.24Q343.60 7.68 344.40 5.52L344.40 5.52L346.88-1.04" fill="#ffffff" stroke="none" stroke-width="none" transform="translate(-182.8800048828125,22.94059959411621)" style="fill: rgb(255, 255, 255);"></path></g></g>
</g>
</g>
<style id="bounce-b6c300b5-ce66-48f8-aa42-7eb19cb9e1ee" data-anikit="">@keyframes bounce-b6c300b5-ce66-48f8-aa42-7eb19cb9e1ee
{
  0% {
    animation-timing-function: cubic-bezier(0.1361,0.2514,0.2175,0.8786);
    transform: translate(0,0px) scaleY(1);
  }
  37% {
    animation-timing-function: cubic-bezier(0.7674,0.1844,0.8382,0.7157);
    transform: translate(0,-39.96px) scaleY(1);
  }
  72% {
    animation-timing-function: cubic-bezier(0.1118,0.2149,0.2172,0.941);
    transform: translate(0,0px) scaleY(1);
  }
  87% {
    animation-timing-function: cubic-bezier(0.7494,0.2259,0.8209,0.6963);
    transform: translate(0,19.900000000000002px) scaleY(0.602);
  }
  100% {
    transform: translate(0,0px) scaleY(1);
  }
}</style></svg>